<mxfile host="app.diagrams.net" modified="2023-06-14T15:07:38.244Z" agent="Mozilla/5.0 (Windows NT 10.0; Win64; x64) AppleWebKit/537.36 (KHTML, like Gecko) Chrome/114.0.0.0 Safari/537.36 Edg/114.0.1823.43" etag="dC0m89WllYedEek8U2Zv" version="21.3.7" type="device">
  <diagram id="DTPX41E55AQL9_UQbjae" name="Page-1">
    <mxGraphModel dx="455" dy="256" grid="1" gridSize="10" guides="1" tooltips="1" connect="1" arrows="1" fold="1" page="1" pageScale="1" pageWidth="850" pageHeight="1100" math="0" shadow="0">
      <root>
        <mxCell id="0" />
        <mxCell id="1" parent="0" />
        <mxCell id="QqPRRxccWku8Uj0Qq3yJ-15" value="" style="endArrow=none;html=1;rounded=0;" parent="1" target="QqPRRxccWku8Uj0Qq3yJ-14" edge="1">
          <mxGeometry width="50" height="50" relative="1" as="geometry">
            <mxPoint x="118" y="120" as="sourcePoint" />
            <mxPoint x="718" y="120" as="targetPoint" />
          </mxGeometry>
        </mxCell>
        <mxCell id="76jpG1Hz2QuS-Rk8o9wJ-1" value="" style="endArrow=classic;html=1;rounded=0;startArrow=none;" parent="1" source="76jpG1Hz2QuS-Rk8o9wJ-82" edge="1">
          <mxGeometry width="50" height="50" relative="1" as="geometry">
            <mxPoint x="118" y="360" as="sourcePoint" />
            <mxPoint x="718" y="360" as="targetPoint" />
          </mxGeometry>
        </mxCell>
        <mxCell id="76jpG1Hz2QuS-Rk8o9wJ-2" value="" style="endArrow=none;html=1;rounded=0;startArrow=none;" parent="1" source="76jpG1Hz2QuS-Rk8o9wJ-32" edge="1">
          <mxGeometry width="50" height="50" relative="1" as="geometry">
            <mxPoint x="118" y="400" as="sourcePoint" />
            <mxPoint x="120" y="80" as="targetPoint" />
          </mxGeometry>
        </mxCell>
        <mxCell id="76jpG1Hz2QuS-Rk8o9wJ-3" value="" style="endArrow=none;html=1;rounded=0;startArrow=none;" parent="1" source="QqPRRxccWku8Uj0Qq3yJ-16" edge="1">
          <mxGeometry width="50" height="50" relative="1" as="geometry">
            <mxPoint x="118" y="120" as="sourcePoint" />
            <mxPoint x="718" y="120" as="targetPoint" />
          </mxGeometry>
        </mxCell>
        <mxCell id="76jpG1Hz2QuS-Rk8o9wJ-4" value="" style="endArrow=none;html=1;rounded=0;" parent="1" edge="1">
          <mxGeometry width="50" height="50" relative="1" as="geometry">
            <mxPoint x="118" y="200" as="sourcePoint" />
            <mxPoint x="718" y="200" as="targetPoint" />
          </mxGeometry>
        </mxCell>
        <mxCell id="76jpG1Hz2QuS-Rk8o9wJ-5" value="" style="endArrow=none;html=1;rounded=0;startArrow=none;" parent="1" source="76jpG1Hz2QuS-Rk8o9wJ-86" edge="1">
          <mxGeometry width="50" height="50" relative="1" as="geometry">
            <mxPoint x="370" y="280" as="sourcePoint" />
            <mxPoint x="718" y="280" as="targetPoint" />
          </mxGeometry>
        </mxCell>
        <mxCell id="76jpG1Hz2QuS-Rk8o9wJ-6" value="" style="endArrow=none;html=1;rounded=0;" parent="1" edge="1">
          <mxGeometry width="50" height="50" relative="1" as="geometry">
            <mxPoint x="240" y="140" as="sourcePoint" />
            <mxPoint x="240" y="100" as="targetPoint" />
          </mxGeometry>
        </mxCell>
        <mxCell id="76jpG1Hz2QuS-Rk8o9wJ-7" value="" style="whiteSpace=wrap;html=1;aspect=fixed;fillColor=#7DADDE;strokeColor=none;fontColor=#ffffff;" parent="1" vertex="1">
          <mxGeometry x="230" y="110" width="20" height="20" as="geometry" />
        </mxCell>
        <mxCell id="76jpG1Hz2QuS-Rk8o9wJ-13" value="" style="whiteSpace=wrap;html=1;aspect=fixed;fillColor=#7DADDE;strokeColor=none;fontColor=#ffffff;" parent="1" vertex="1">
          <mxGeometry x="230" y="350" width="20" height="20" as="geometry" />
        </mxCell>
        <mxCell id="76jpG1Hz2QuS-Rk8o9wJ-14" value="" style="endArrow=none;html=1;rounded=0;sourcePerimeterSpacing=0;" parent="1" edge="1">
          <mxGeometry width="50" height="50" relative="1" as="geometry">
            <mxPoint x="120" y="360" as="sourcePoint" />
            <mxPoint x="179" y="360" as="targetPoint" />
          </mxGeometry>
        </mxCell>
        <mxCell id="76jpG1Hz2QuS-Rk8o9wJ-16" value="" style="endArrow=classic;html=1;rounded=0;strokeWidth=2;" parent="1" edge="1">
          <mxGeometry width="50" height="50" relative="1" as="geometry">
            <mxPoint x="240" y="150" as="sourcePoint" />
            <mxPoint x="240" y="270" as="targetPoint" />
          </mxGeometry>
        </mxCell>
        <mxCell id="76jpG1Hz2QuS-Rk8o9wJ-19" value="" style="endArrow=none;html=1;rounded=0;" parent="1" edge="1">
          <mxGeometry width="50" height="50" relative="1" as="geometry">
            <mxPoint x="120" y="280" as="sourcePoint" />
            <mxPoint x="229.9999999999988" y="280" as="targetPoint" />
          </mxGeometry>
        </mxCell>
        <mxCell id="76jpG1Hz2QuS-Rk8o9wJ-21" value="" style="endArrow=none;html=1;rounded=0;startArrow=none;" parent="1" edge="1">
          <mxGeometry width="50" height="50" relative="1" as="geometry">
            <mxPoint x="250.00000000000125" y="280" as="sourcePoint" />
            <mxPoint x="350" y="280" as="targetPoint" />
          </mxGeometry>
        </mxCell>
        <mxCell id="76jpG1Hz2QuS-Rk8o9wJ-23" value="" style="whiteSpace=wrap;html=1;aspect=fixed;fillColor=#00336F;strokeColor=none;fontColor=#ffffff;" parent="1" vertex="1">
          <mxGeometry x="350" y="350" width="20" height="20" as="geometry" />
        </mxCell>
        <mxCell id="76jpG1Hz2QuS-Rk8o9wJ-24" value="" style="endArrow=none;html=1;rounded=0;startArrow=none;" parent="1" source="76jpG1Hz2QuS-Rk8o9wJ-13" target="76jpG1Hz2QuS-Rk8o9wJ-23" edge="1">
          <mxGeometry width="50" height="50" relative="1" as="geometry">
            <mxPoint x="250" y="359.9999999999999" as="sourcePoint" />
            <mxPoint x="718" y="359.9999999999999" as="targetPoint" />
          </mxGeometry>
        </mxCell>
        <mxCell id="76jpG1Hz2QuS-Rk8o9wJ-26" value="" style="endArrow=none;html=1;rounded=0;" parent="1" edge="1">
          <mxGeometry width="50" height="50" relative="1" as="geometry">
            <mxPoint x="359.65999999999997" y="300" as="sourcePoint" />
            <mxPoint x="359.65999999999997" y="260" as="targetPoint" />
          </mxGeometry>
        </mxCell>
        <mxCell id="76jpG1Hz2QuS-Rk8o9wJ-27" value="" style="whiteSpace=wrap;html=1;aspect=fixed;fillColor=#00336F;strokeColor=none;fontColor=#ffffff;" parent="1" vertex="1">
          <mxGeometry x="350" y="270" width="20" height="20" as="geometry" />
        </mxCell>
        <mxCell id="76jpG1Hz2QuS-Rk8o9wJ-28" value="" style="endArrow=classic;html=1;rounded=0;strokeWidth=2;" parent="1" edge="1">
          <mxGeometry width="50" height="50" relative="1" as="geometry">
            <mxPoint x="363.6499999999999" y="260" as="sourcePoint" />
            <mxPoint x="364" y="130" as="targetPoint" />
          </mxGeometry>
        </mxCell>
        <mxCell id="76jpG1Hz2QuS-Rk8o9wJ-31" value="" style="shape=curlyBracket;whiteSpace=wrap;html=1;rounded=1;flipH=1;fillColor=default;rotation=-90;" parent="1" vertex="1">
          <mxGeometry x="290" y="25" width="20" height="120" as="geometry" />
        </mxCell>
        <mxCell id="76jpG1Hz2QuS-Rk8o9wJ-32" value="" style="ellipse;whiteSpace=wrap;html=1;aspect=fixed;fillColor=#7DADDE;fontColor=#ffffff;strokeColor=none;" parent="1" vertex="1">
          <mxGeometry x="110" y="110" width="20" height="20" as="geometry" />
        </mxCell>
        <mxCell id="76jpG1Hz2QuS-Rk8o9wJ-33" value="" style="endArrow=none;html=1;rounded=0;startArrow=none;" parent="1" source="76jpG1Hz2QuS-Rk8o9wJ-34" target="76jpG1Hz2QuS-Rk8o9wJ-32" edge="1">
          <mxGeometry width="50" height="50" relative="1" as="geometry">
            <mxPoint x="118.00000000000011" y="400" as="sourcePoint" />
            <mxPoint x="118.00000000000011" y="40" as="targetPoint" />
          </mxGeometry>
        </mxCell>
        <mxCell id="76jpG1Hz2QuS-Rk8o9wJ-34" value="" style="ellipse;whiteSpace=wrap;html=1;aspect=fixed;fillColor=#7DADDE;fontColor=#ffffff;strokeColor=none;" parent="1" vertex="1">
          <mxGeometry x="110" y="190" width="20" height="20" as="geometry" />
        </mxCell>
        <mxCell id="76jpG1Hz2QuS-Rk8o9wJ-35" value="" style="endArrow=none;html=1;rounded=0;exitX=0.483;exitY=0.061;exitDx=0;exitDy=0;exitPerimeter=0;" parent="1" source="76jpG1Hz2QuS-Rk8o9wJ-50" target="76jpG1Hz2QuS-Rk8o9wJ-34" edge="1">
          <mxGeometry width="50" height="50" relative="1" as="geometry">
            <mxPoint x="120" y="400" as="sourcePoint" />
            <mxPoint x="119.94047724349116" y="129.99982309347251" as="targetPoint" />
          </mxGeometry>
        </mxCell>
        <mxCell id="76jpG1Hz2QuS-Rk8o9wJ-38" value="" style="shape=curlyBracket;whiteSpace=wrap;html=1;rounded=1;flipH=1;fillColor=default;rotation=90;" parent="1" vertex="1">
          <mxGeometry x="170" y="350" width="20" height="120" as="geometry" />
        </mxCell>
        <mxCell id="76jpG1Hz2QuS-Rk8o9wJ-41" value="" style="endArrow=none;html=1;rounded=0;entryX=0.5;entryY=1;entryDx=0;entryDy=0;" parent="1" target="76jpG1Hz2QuS-Rk8o9wJ-13" edge="1">
          <mxGeometry width="50" height="50" relative="1" as="geometry">
            <mxPoint x="240" y="440" as="sourcePoint" />
            <mxPoint x="240.00000000000006" y="371" as="targetPoint" />
          </mxGeometry>
        </mxCell>
        <mxCell id="76jpG1Hz2QuS-Rk8o9wJ-42" value="" style="shape=curlyBracket;whiteSpace=wrap;html=1;rounded=1;flipH=1;fillColor=default;rotation=90;" parent="1" vertex="1">
          <mxGeometry x="290" y="350.15" width="20" height="120" as="geometry" />
        </mxCell>
        <mxCell id="76jpG1Hz2QuS-Rk8o9wJ-43" value="" style="endArrow=none;html=1;rounded=0;" parent="1" edge="1">
          <mxGeometry width="50" height="50" relative="1" as="geometry">
            <mxPoint x="360" y="439" as="sourcePoint" />
            <mxPoint x="360" y="369" as="targetPoint" />
          </mxGeometry>
        </mxCell>
        <mxCell id="76jpG1Hz2QuS-Rk8o9wJ-44" value="FMU1" style="text;html=1;align=center;verticalAlign=middle;resizable=0;points=[];autosize=1;strokeColor=none;fillColor=none;fontSize=16;" parent="1" vertex="1">
          <mxGeometry x="30" y="110" width="60" height="20" as="geometry" />
        </mxCell>
        <mxCell id="76jpG1Hz2QuS-Rk8o9wJ-45" value="FMU2" style="text;html=1;align=center;verticalAlign=middle;resizable=0;points=[];autosize=1;strokeColor=none;fillColor=none;fontSize=16;" parent="1" vertex="1">
          <mxGeometry x="30" y="190" width="60" height="20" as="geometry" />
        </mxCell>
        <mxCell id="76jpG1Hz2QuS-Rk8o9wJ-46" value="Bus Simulation&lt;br&gt;(FMU)" style="text;html=1;align=center;verticalAlign=middle;resizable=0;points=[];autosize=1;strokeColor=none;fillColor=none;fontSize=16;" parent="1" vertex="1">
          <mxGeometry y="260" width="120" height="40" as="geometry" />
        </mxCell>
        <mxCell id="76jpG1Hz2QuS-Rk8o9wJ-47" value="step size" style="text;html=1;align=center;verticalAlign=middle;resizable=0;points=[];autosize=1;strokeColor=none;fillColor=none;" parent="1" vertex="1">
          <mxGeometry x="30" y="400.15" width="60" height="20" as="geometry" />
        </mxCell>
        <mxCell id="76jpG1Hz2QuS-Rk8o9wJ-48" value="time (step)" style="text;html=1;align=center;verticalAlign=middle;resizable=0;points=[];autosize=1;strokeColor=none;fillColor=none;" parent="1" vertex="1">
          <mxGeometry x="20" y="434" width="80" height="30" as="geometry" />
        </mxCell>
        <mxCell id="76jpG1Hz2QuS-Rk8o9wJ-50" value="0 (0)" style="text;html=1;align=center;verticalAlign=middle;resizable=0;points=[];autosize=1;strokeColor=none;fillColor=none;" parent="1" vertex="1">
          <mxGeometry x="96" y="434" width="50" height="30" as="geometry" />
        </mxCell>
        <mxCell id="76jpG1Hz2QuS-Rk8o9wJ-51" value="0.1&amp;nbsp;(1)" style="text;html=1;align=center;verticalAlign=middle;resizable=0;points=[];autosize=1;strokeColor=none;fillColor=none;" parent="1" vertex="1">
          <mxGeometry x="210" y="434" width="60" height="30" as="geometry" />
        </mxCell>
        <mxCell id="76jpG1Hz2QuS-Rk8o9wJ-53" value="0.1008 (2)" style="text;html=1;align=center;verticalAlign=middle;resizable=0;points=[];autosize=1;strokeColor=none;fillColor=none;" parent="1" vertex="1">
          <mxGeometry x="320" y="434" width="80" height="30" as="geometry" />
        </mxCell>
        <mxCell id="76jpG1Hz2QuS-Rk8o9wJ-59" value="" style="endArrow=classic;html=1;rounded=0;strokeWidth=2;" parent="1" edge="1">
          <mxGeometry width="50" height="50" relative="1" as="geometry">
            <mxPoint x="260" y="270" as="sourcePoint" />
            <mxPoint x="340" y="270" as="targetPoint" />
          </mxGeometry>
        </mxCell>
        <mxCell id="76jpG1Hz2QuS-Rk8o9wJ-60" value="nBits / Baud" style="text;html=1;align=center;verticalAlign=middle;resizable=0;points=[];autosize=1;strokeColor=none;fillColor=none;strokeWidth=2;" parent="1" vertex="1">
          <mxGeometry x="255" y="250" width="80" height="20" as="geometry" />
        </mxCell>
        <mxCell id="76jpG1Hz2QuS-Rk8o9wJ-64" value="" style="ellipse;whiteSpace=wrap;html=1;aspect=fixed;fillColor=#00336F;fontColor=#ffffff;strokeColor=none;" parent="1" vertex="1">
          <mxGeometry x="230" y="270" width="20" height="20" as="geometry" />
        </mxCell>
        <mxCell id="76jpG1Hz2QuS-Rk8o9wJ-65" value="" style="endArrow=none;html=1;rounded=0;" parent="1" edge="1">
          <mxGeometry width="50" height="50" relative="1" as="geometry">
            <mxPoint x="179" y="370" as="sourcePoint" />
            <mxPoint x="179" y="350" as="targetPoint" />
          </mxGeometry>
        </mxCell>
        <mxCell id="76jpG1Hz2QuS-Rk8o9wJ-66" value="" style="endArrow=none;html=1;rounded=0;" parent="1" edge="1">
          <mxGeometry width="50" height="50" relative="1" as="geometry">
            <mxPoint x="181" y="370" as="sourcePoint" />
            <mxPoint x="181" y="350" as="targetPoint" />
          </mxGeometry>
        </mxCell>
        <mxCell id="76jpG1Hz2QuS-Rk8o9wJ-67" value="" style="endArrow=none;html=1;rounded=0;sourcePerimeterSpacing=0;" parent="1" edge="1">
          <mxGeometry width="50" height="50" relative="1" as="geometry">
            <mxPoint x="181" y="360" as="sourcePoint" />
            <mxPoint x="230" y="359.90000000000003" as="targetPoint" />
          </mxGeometry>
        </mxCell>
        <mxCell id="76jpG1Hz2QuS-Rk8o9wJ-68" value="0.1" style="text;html=1;align=center;verticalAlign=middle;resizable=0;points=[];autosize=1;strokeColor=none;fillColor=none;" parent="1" vertex="1">
          <mxGeometry x="165" y="419" width="30" height="20" as="geometry" />
        </mxCell>
        <mxCell id="76jpG1Hz2QuS-Rk8o9wJ-69" value="0.008" style="text;html=1;align=center;verticalAlign=middle;resizable=0;points=[];autosize=1;strokeColor=none;fillColor=none;" parent="1" vertex="1">
          <mxGeometry x="274.84" y="419" width="50" height="20" as="geometry" />
        </mxCell>
        <mxCell id="76jpG1Hz2QuS-Rk8o9wJ-70" value="Transmit [0.1, 1]" style="text;html=1;align=left;verticalAlign=middle;resizable=0;points=[];autosize=1;strokeColor=none;fillColor=none;" parent="1" vertex="1">
          <mxGeometry x="243" y="155" width="100" height="20" as="geometry" />
        </mxCell>
        <mxCell id="76jpG1Hz2QuS-Rk8o9wJ-71" value="Confirm [0.1008, 2]" style="text;html=1;align=left;verticalAlign=middle;resizable=0;points=[];autosize=1;strokeColor=none;fillColor=none;" parent="1" vertex="1">
          <mxGeometry x="368" y="150" width="130" height="30" as="geometry" />
        </mxCell>
        <mxCell id="76jpG1Hz2QuS-Rk8o9wJ-72" value="Transmit [0.1008, 1]" style="text;html=1;align=left;verticalAlign=middle;resizable=0;points=[];autosize=1;strokeColor=none;fillColor=none;" parent="1" vertex="1">
          <mxGeometry x="368" y="230" width="120" height="20" as="geometry" />
        </mxCell>
        <mxCell id="76jpG1Hz2QuS-Rk8o9wJ-73" value="" style="endArrow=none;html=1;rounded=0;" parent="1" edge="1">
          <mxGeometry width="50" height="50" relative="1" as="geometry">
            <mxPoint x="424" y="370" as="sourcePoint" />
            <mxPoint x="424" y="350" as="targetPoint" />
          </mxGeometry>
        </mxCell>
        <mxCell id="76jpG1Hz2QuS-Rk8o9wJ-74" value="" style="endArrow=none;html=1;rounded=0;" parent="1" edge="1">
          <mxGeometry width="50" height="50" relative="1" as="geometry">
            <mxPoint x="426" y="370" as="sourcePoint" />
            <mxPoint x="426" y="350" as="targetPoint" />
          </mxGeometry>
        </mxCell>
        <mxCell id="76jpG1Hz2QuS-Rk8o9wJ-75" value="" style="shape=curlyBracket;whiteSpace=wrap;html=1;rounded=1;flipH=1;fillColor=default;rotation=90;" parent="1" vertex="1">
          <mxGeometry x="414.5" y="345.50000000000006" width="20" height="129" as="geometry" />
        </mxCell>
        <mxCell id="76jpG1Hz2QuS-Rk8o9wJ-76" value="0.9992" style="text;html=1;align=center;verticalAlign=middle;resizable=0;points=[];autosize=1;strokeColor=none;fillColor=none;" parent="1" vertex="1">
          <mxGeometry x="400" y="419" width="50" height="20" as="geometry" />
        </mxCell>
        <mxCell id="76jpG1Hz2QuS-Rk8o9wJ-80" value="" style="endArrow=classic;html=1;rounded=0;strokeWidth=2;" parent="1" edge="1">
          <mxGeometry width="50" height="50" relative="1" as="geometry">
            <mxPoint x="491" y="230" as="sourcePoint" />
            <mxPoint x="491" y="270" as="targetPoint" />
          </mxGeometry>
        </mxCell>
        <mxCell id="76jpG1Hz2QuS-Rk8o9wJ-81" value="" style="endArrow=none;html=1;rounded=0;startArrow=none;" parent="1" edge="1">
          <mxGeometry width="50" height="50" relative="1" as="geometry">
            <mxPoint x="503.00000000000136" y="280" as="sourcePoint" />
            <mxPoint x="603" y="280" as="targetPoint" />
          </mxGeometry>
        </mxCell>
        <mxCell id="76jpG1Hz2QuS-Rk8o9wJ-83" value="" style="endArrow=none;html=1;rounded=0;startArrow=none;" parent="1" target="76jpG1Hz2QuS-Rk8o9wJ-82" edge="1">
          <mxGeometry width="50" height="50" relative="1" as="geometry">
            <mxPoint x="499" y="360.0123966942149" as="sourcePoint" />
            <mxPoint x="971" y="359.9999999999999" as="targetPoint" />
          </mxGeometry>
        </mxCell>
        <mxCell id="76jpG1Hz2QuS-Rk8o9wJ-84" value="" style="endArrow=classic;html=1;rounded=0;strokeWidth=2;" parent="1" edge="1">
          <mxGeometry width="50" height="50" relative="1" as="geometry">
            <mxPoint x="606.3399999999999" y="260" as="sourcePoint" />
            <mxPoint x="606" y="210" as="targetPoint" />
          </mxGeometry>
        </mxCell>
        <mxCell id="76jpG1Hz2QuS-Rk8o9wJ-85" value="" style="endArrow=none;html=1;rounded=0;" parent="1" edge="1">
          <mxGeometry width="50" height="50" relative="1" as="geometry">
            <mxPoint x="609.8299999999998" y="300" as="sourcePoint" />
            <mxPoint x="609.8299999999998" y="260" as="targetPoint" />
          </mxGeometry>
        </mxCell>
        <mxCell id="76jpG1Hz2QuS-Rk8o9wJ-87" value="" style="endArrow=classic;html=1;rounded=0;strokeWidth=2;" parent="1" edge="1">
          <mxGeometry width="50" height="50" relative="1" as="geometry">
            <mxPoint x="613.6499999999999" y="260" as="sourcePoint" />
            <mxPoint x="614" y="130" as="targetPoint" />
          </mxGeometry>
        </mxCell>
        <mxCell id="76jpG1Hz2QuS-Rk8o9wJ-88" value="" style="shape=curlyBracket;whiteSpace=wrap;html=1;rounded=1;flipH=1;fillColor=default;rotation=-90;" parent="1" vertex="1">
          <mxGeometry x="539.5" y="25" width="20" height="120" as="geometry" />
        </mxCell>
        <mxCell id="76jpG1Hz2QuS-Rk8o9wJ-89" value="" style="endArrow=none;html=1;rounded=0;entryX=0.5;entryY=1;entryDx=0;entryDy=0;" parent="1" edge="1">
          <mxGeometry width="50" height="50" relative="1" as="geometry">
            <mxPoint x="489" y="440" as="sourcePoint" />
            <mxPoint x="489" y="370.00000000000006" as="targetPoint" />
          </mxGeometry>
        </mxCell>
        <mxCell id="76jpG1Hz2QuS-Rk8o9wJ-90" value="" style="shape=curlyBracket;whiteSpace=wrap;html=1;rounded=1;flipH=1;fillColor=default;rotation=90;" parent="1" vertex="1">
          <mxGeometry x="539.5" y="349.38" width="20" height="121" as="geometry" />
        </mxCell>
        <mxCell id="76jpG1Hz2QuS-Rk8o9wJ-91" value="" style="endArrow=none;html=1;rounded=0;" parent="1" edge="1">
          <mxGeometry width="50" height="50" relative="1" as="geometry">
            <mxPoint x="609.88" y="440.15" as="sourcePoint" />
            <mxPoint x="609.88" y="370.15" as="targetPoint" />
          </mxGeometry>
        </mxCell>
        <mxCell id="76jpG1Hz2QuS-Rk8o9wJ-93" value="1.1 (3)" style="text;html=1;align=center;verticalAlign=middle;resizable=0;points=[];autosize=1;strokeColor=none;fillColor=none;" parent="1" vertex="1">
          <mxGeometry x="456" y="434" width="60" height="30" as="geometry" />
        </mxCell>
        <mxCell id="76jpG1Hz2QuS-Rk8o9wJ-94" value="1.1008 (4)" style="text;html=1;align=center;verticalAlign=middle;resizable=0;points=[];autosize=1;strokeColor=none;fillColor=none;" parent="1" vertex="1">
          <mxGeometry x="573" y="434" width="80" height="30" as="geometry" />
        </mxCell>
        <mxCell id="76jpG1Hz2QuS-Rk8o9wJ-95" value="" style="endArrow=classic;html=1;rounded=0;strokeWidth=2;" parent="1" edge="1">
          <mxGeometry width="50" height="50" relative="1" as="geometry">
            <mxPoint x="513" y="270" as="sourcePoint" />
            <mxPoint x="593" y="270" as="targetPoint" />
          </mxGeometry>
        </mxCell>
        <mxCell id="76jpG1Hz2QuS-Rk8o9wJ-96" value="nBits / Baud" style="text;html=1;align=center;verticalAlign=middle;resizable=0;points=[];autosize=1;strokeColor=none;fillColor=none;strokeWidth=2;" parent="1" vertex="1">
          <mxGeometry x="508" y="250" width="80" height="20" as="geometry" />
        </mxCell>
        <mxCell id="76jpG1Hz2QuS-Rk8o9wJ-100" value="0.008" style="text;html=1;align=center;verticalAlign=middle;resizable=0;points=[];autosize=1;strokeColor=none;fillColor=none;" parent="1" vertex="1">
          <mxGeometry x="527.8399999999999" y="419" width="50" height="20" as="geometry" />
        </mxCell>
        <mxCell id="76jpG1Hz2QuS-Rk8o9wJ-101" value="Transmit [1.1, 1]" style="text;html=1;align=left;verticalAlign=middle;resizable=0;points=[];autosize=1;strokeColor=none;fillColor=none;" parent="1" vertex="1">
          <mxGeometry x="496" y="230" width="100" height="20" as="geometry" />
        </mxCell>
        <mxCell id="76jpG1Hz2QuS-Rk8o9wJ-102" value="Confirm&amp;nbsp;&amp;nbsp;[1.1008, 2]" style="text;html=1;align=left;verticalAlign=middle;resizable=0;points=[];autosize=1;strokeColor=none;fillColor=none;" parent="1" vertex="1">
          <mxGeometry x="618" y="225" width="130" height="30" as="geometry" />
        </mxCell>
        <mxCell id="76jpG1Hz2QuS-Rk8o9wJ-103" value="Transmit [1.1008, 1]" style="text;html=1;align=left;verticalAlign=middle;resizable=0;points=[];autosize=1;strokeColor=none;fillColor=none;" parent="1" vertex="1">
          <mxGeometry x="618" y="155" width="120" height="20" as="geometry" />
        </mxCell>
        <mxCell id="76jpG1Hz2QuS-Rk8o9wJ-106" value="" style="endArrow=none;html=1;rounded=0;" parent="1" edge="1">
          <mxGeometry width="50" height="50" relative="1" as="geometry">
            <mxPoint x="491" y="220" as="sourcePoint" />
            <mxPoint x="491" y="180" as="targetPoint" />
          </mxGeometry>
        </mxCell>
        <mxCell id="76jpG1Hz2QuS-Rk8o9wJ-107" value="" style="whiteSpace=wrap;html=1;aspect=fixed;fillColor=#7DADDE;strokeColor=none;fontColor=#ffffff;" parent="1" vertex="1">
          <mxGeometry x="481" y="190" width="20" height="20" as="geometry" />
        </mxCell>
        <mxCell id="76jpG1Hz2QuS-Rk8o9wJ-82" value="" style="whiteSpace=wrap;html=1;aspect=fixed;fillColor=#00336F;strokeColor=none;fontColor=#ffffff;" parent="1" vertex="1">
          <mxGeometry x="600" y="350.15" width="20" height="20" as="geometry" />
        </mxCell>
        <mxCell id="76jpG1Hz2QuS-Rk8o9wJ-108" value="" style="endArrow=none;html=1;rounded=0;startArrow=none;" parent="1" source="76jpG1Hz2QuS-Rk8o9wJ-23" edge="1">
          <mxGeometry width="50" height="50" relative="1" as="geometry">
            <mxPoint x="370" y="360" as="sourcePoint" />
            <mxPoint x="424" y="360" as="targetPoint" />
          </mxGeometry>
        </mxCell>
        <mxCell id="76jpG1Hz2QuS-Rk8o9wJ-86" value="" style="whiteSpace=wrap;html=1;aspect=fixed;fillColor=#00336F;strokeColor=none;fontColor=#ffffff;" parent="1" vertex="1">
          <mxGeometry x="600" y="270" width="20" height="20" as="geometry" />
        </mxCell>
        <mxCell id="76jpG1Hz2QuS-Rk8o9wJ-109" value="" style="endArrow=none;html=1;rounded=0;startArrow=none;" parent="1" target="76jpG1Hz2QuS-Rk8o9wJ-86" edge="1">
          <mxGeometry width="50" height="50" relative="1" as="geometry">
            <mxPoint x="370" y="280" as="sourcePoint" />
            <mxPoint x="718" y="280" as="targetPoint" />
          </mxGeometry>
        </mxCell>
        <mxCell id="76jpG1Hz2QuS-Rk8o9wJ-111" value="" style="ellipse;whiteSpace=wrap;html=1;aspect=fixed;fillColor=#00336F;fontColor=#ffffff;strokeColor=none;" parent="1" vertex="1">
          <mxGeometry x="481" y="270" width="20" height="20" as="geometry" />
        </mxCell>
        <mxCell id="76jpG1Hz2QuS-Rk8o9wJ-112" value="" style="endArrow=none;html=1;rounded=0;startArrow=none;" parent="1" edge="1">
          <mxGeometry width="50" height="50" relative="1" as="geometry">
            <mxPoint x="426" y="360" as="sourcePoint" />
            <mxPoint x="480" y="360" as="targetPoint" />
          </mxGeometry>
        </mxCell>
        <mxCell id="76jpG1Hz2QuS-Rk8o9wJ-113" value="" style="whiteSpace=wrap;html=1;aspect=fixed;fillColor=#7DADDE;strokeColor=none;fontColor=#ffffff;" parent="1" vertex="1">
          <mxGeometry x="479" y="350" width="20" height="20" as="geometry" />
        </mxCell>
        <mxCell id="76jpG1Hz2QuS-Rk8o9wJ-114" value="t" style="text;html=1;align=center;verticalAlign=middle;resizable=0;points=[];autosize=1;strokeColor=none;fillColor=none;fontSize=16;" parent="1" vertex="1">
          <mxGeometry x="691" y="365" width="20" height="20" as="geometry" />
        </mxCell>
        <mxCell id="76jpG1Hz2QuS-Rk8o9wJ-115" value="" style="verticalLabelPosition=bottom;verticalAlign=top;html=1;shape=mxgraph.basic.rect;fillColor2=none;strokeWidth=1;size=20;indent=5;fontSize=16;fillColor=default;" parent="1" vertex="1">
          <mxGeometry x="75" y="500" width="670" height="100" as="geometry" />
        </mxCell>
        <mxCell id="76jpG1Hz2QuS-Rk8o9wJ-118" value="" style="whiteSpace=wrap;html=1;aspect=fixed;fillColor=#7DADDE;strokeColor=none;fontColor=#ffffff;" parent="1" vertex="1">
          <mxGeometry x="412" y="516" width="20" height="20" as="geometry" />
        </mxCell>
        <mxCell id="76jpG1Hz2QuS-Rk8o9wJ-119" value="" style="ellipse;whiteSpace=wrap;html=1;aspect=fixed;fillColor=#00336F;fontColor=#ffffff;strokeColor=#00336F;" parent="1" vertex="1">
          <mxGeometry x="412" y="564" width="20" height="20" as="geometry" />
        </mxCell>
        <mxCell id="76jpG1Hz2QuS-Rk8o9wJ-120" value="" style="ellipse;whiteSpace=wrap;html=1;aspect=fixed;fillColor=#7DADDE;fontColor=#ffffff;strokeColor=none;" parent="1" vertex="1">
          <mxGeometry x="115" y="564" width="20" height="20" as="geometry" />
        </mxCell>
        <mxCell id="76jpG1Hz2QuS-Rk8o9wJ-121" value="" style="whiteSpace=wrap;html=1;aspect=fixed;fillColor=#00336F;strokeColor=none;fontColor=#ffffff;" parent="1" vertex="1">
          <mxGeometry x="115" y="520" width="20" height="20" as="geometry" />
        </mxCell>
        <mxCell id="76jpG1Hz2QuS-Rk8o9wJ-122" value="Next &lt;b&gt;FMU event&lt;/b&gt; time calculation &lt;br&gt;given to the importer in advance" style="text;html=1;align=left;verticalAlign=middle;resizable=0;points=[];autosize=1;strokeColor=none;fillColor=none;fontSize=16;" parent="1" vertex="1">
          <mxGeometry x="140" y="554" width="250" height="40" as="geometry" />
        </mxCell>
        <mxCell id="76jpG1Hz2QuS-Rk8o9wJ-123" value="Next &lt;b&gt;bus event&lt;/b&gt; time calculated &lt;br&gt;by the bus simulation" style="text;html=1;align=left;verticalAlign=middle;resizable=0;points=[];autosize=1;strokeColor=none;fillColor=none;fontSize=16;" parent="1" vertex="1">
          <mxGeometry x="140" y="510" width="240" height="40" as="geometry" />
        </mxCell>
        <mxCell id="76jpG1Hz2QuS-Rk8o9wJ-124" value="&lt;b&gt;Bus event&lt;/b&gt; (e.g., Transmit, &lt;br&gt;Confirm)" style="text;html=1;align=left;verticalAlign=middle;resizable=0;points=[];autosize=1;strokeColor=none;fillColor=none;fontSize=16;" parent="1" vertex="1">
          <mxGeometry x="442" y="549" width="210" height="50" as="geometry" />
        </mxCell>
        <mxCell id="76jpG1Hz2QuS-Rk8o9wJ-125" value="&lt;b&gt;FMU event&lt;/b&gt; (e.g., Timing)" style="text;html=1;align=left;verticalAlign=middle;resizable=0;points=[];autosize=1;strokeColor=none;fillColor=none;fontSize=16;" parent="1" vertex="1">
          <mxGeometry x="442" y="511" width="200" height="30" as="geometry" />
        </mxCell>
        <mxCell id="76jpG1Hz2QuS-Rk8o9wJ-127" value="FMU1&amp;nbsp; &amp;nbsp; &amp;nbsp; &amp;nbsp;FMU2" style="text;html=1;align=center;verticalAlign=middle;resizable=0;points=[];autosize=1;strokeColor=none;fillColor=none;fontSize=16;" parent="1" vertex="1">
          <mxGeometry x="235" y="50" width="130" height="20" as="geometry" />
        </mxCell>
        <mxCell id="76jpG1Hz2QuS-Rk8o9wJ-131" value="" style="endArrow=classic;html=1;rounded=0;strokeWidth=2;" parent="1" edge="1">
          <mxGeometry width="50" height="50" relative="1" as="geometry">
            <mxPoint x="287.41999999999996" y="59.8" as="sourcePoint" />
            <mxPoint x="312.58" y="59.8" as="targetPoint" />
          </mxGeometry>
        </mxCell>
        <mxCell id="76jpG1Hz2QuS-Rk8o9wJ-132" value="FMU2&amp;nbsp; &amp;nbsp; &amp;nbsp; &amp;nbsp;FMU1" style="text;html=1;align=center;verticalAlign=middle;resizable=0;points=[];autosize=1;strokeColor=none;fillColor=none;fontSize=16;" parent="1" vertex="1">
          <mxGeometry x="487.84" y="50" width="130" height="20" as="geometry" />
        </mxCell>
        <mxCell id="76jpG1Hz2QuS-Rk8o9wJ-133" value="" style="endArrow=classic;html=1;rounded=0;strokeWidth=2;" parent="1" edge="1">
          <mxGeometry width="50" height="50" relative="1" as="geometry">
            <mxPoint x="540.26" y="59.80000000000001" as="sourcePoint" />
            <mxPoint x="565.42" y="59.80000000000001" as="targetPoint" />
          </mxGeometry>
        </mxCell>
        <mxCell id="76jpG1Hz2QuS-Rk8o9wJ-134" value="Importer" style="text;html=1;align=center;verticalAlign=middle;resizable=0;points=[];autosize=1;strokeColor=none;fillColor=none;fontSize=16;" parent="1" vertex="1">
          <mxGeometry x="25" y="350.15" width="80" height="20" as="geometry" />
        </mxCell>
        <mxCell id="QqPRRxccWku8Uj0Qq3yJ-11" value="" style="rounded=0;whiteSpace=wrap;html=1;strokeColor=none;fontSize=9;fontColor=#C4C4C4;" parent="1" vertex="1">
          <mxGeometry x="360" y="187" width="10" height="24" as="geometry" />
        </mxCell>
        <mxCell id="QqPRRxccWku8Uj0Qq3yJ-10" value="" style="ellipse;whiteSpace=wrap;html=1;aspect=fixed;fillColor=#00336F;fontColor=#ffffff;strokeColor=none;" parent="1" vertex="1">
          <mxGeometry x="350" y="190" width="20" height="20" as="geometry" />
        </mxCell>
        <mxCell id="76jpG1Hz2QuS-Rk8o9wJ-25" value="" style="endArrow=classic;html=1;rounded=0;strokeWidth=2;" parent="1" edge="1">
          <mxGeometry width="50" height="50" relative="1" as="geometry">
            <mxPoint x="356.34" y="260" as="sourcePoint" />
            <mxPoint x="356" y="210" as="targetPoint" />
          </mxGeometry>
        </mxCell>
        <mxCell id="QqPRRxccWku8Uj0Qq3yJ-12" value="" style="rounded=0;whiteSpace=wrap;html=1;strokeColor=none;fontSize=9;fontColor=#C4C4C4;" parent="1" vertex="1">
          <mxGeometry x="611" y="186" width="10" height="24" as="geometry" />
        </mxCell>
        <mxCell id="QqPRRxccWku8Uj0Qq3yJ-13" value="" style="ellipse;whiteSpace=wrap;html=1;aspect=fixed;fillColor=#00336F;fontColor=#ffffff;strokeColor=none;" parent="1" vertex="1">
          <mxGeometry x="601" y="189" width="20" height="20" as="geometry" />
        </mxCell>
        <mxCell id="QqPRRxccWku8Uj0Qq3yJ-14" value="" style="ellipse;whiteSpace=wrap;html=1;aspect=fixed;fillColor=#00336F;fontColor=#ffffff;strokeColor=none;" parent="1" vertex="1">
          <mxGeometry x="350" y="110" width="20" height="20" as="geometry" />
        </mxCell>
        <mxCell id="QqPRRxccWku8Uj0Qq3yJ-17" value="" style="endArrow=none;html=1;rounded=0;startArrow=none;" parent="1" source="QqPRRxccWku8Uj0Qq3yJ-14" target="QqPRRxccWku8Uj0Qq3yJ-16" edge="1">
          <mxGeometry width="50" height="50" relative="1" as="geometry">
            <mxPoint x="370" y="120" as="sourcePoint" />
            <mxPoint x="718" y="120" as="targetPoint" />
          </mxGeometry>
        </mxCell>
        <mxCell id="QqPRRxccWku8Uj0Qq3yJ-16" value="" style="ellipse;whiteSpace=wrap;html=1;aspect=fixed;fillColor=#00336F;fontColor=#ffffff;strokeColor=none;" parent="1" vertex="1">
          <mxGeometry x="601" y="110" width="20" height="20" as="geometry" />
        </mxCell>
      </root>
    </mxGraphModel>
  </diagram>
</mxfile>
